<svg width="224" height="51" viewBox="0 0 224 51" fill="none" xmlns="http://www.w3.org/2000/svg">
<g clip-path="url(#clip0_202_105)">
<path d="M27.7373 23.2551C27.7373 24.3917 27.5954 25.4069 27.3115 26.3008C27.0277 27.1948 26.6406 27.9865 26.1504 28.6761C25.673 29.353 25.1182 29.934 24.4861 30.4193C23.8539 30.9046 23.1894 31.3005 22.4927 31.6069C21.809 31.9135 21.1122 32.1369 20.4026 32.2774C19.706 32.4179 19.048 32.4881 18.4287 32.4881H7.04926V27.5076H18.4287C19.0737 27.4566 19.6543 27.3289 20.1704 27.1246C20.6994 26.9074 21.151 26.6201 21.5251 26.2625C21.8993 25.9049 22.1895 25.4771 22.3959 24.9791C22.6024 24.4683 22.7056 23.8936 22.7056 23.2551V20.9947C22.6411 20.3689 22.5056 19.7943 22.2992 19.2707C22.0927 18.7471 21.809 18.3002 21.4477 17.9298C21.0993 17.5595 20.6736 17.2721 20.1704 17.0678C19.6672 16.8507 19.0867 16.7422 18.4287 16.7422H7.08797C6.41708 16.7422 5.90746 16.9145 5.5591 17.2594C5.21076 17.6042 5.03659 18.1022 5.03659 18.7535V39.2309H0.00488281V18.7535C0.00488281 17.4765 0.237115 16.391 0.701581 15.4971C1.17894 14.6031 1.76598 13.8816 2.46267 13.3325C3.17227 12.7834 3.93993 12.3875 4.76565 12.1448C5.59136 11.8894 6.35257 11.7617 7.04926 11.7617H18.4287C19.564 11.7617 20.5833 11.9086 21.4864 12.2023C22.3895 12.4832 23.1829 12.8663 23.8668 13.3516C24.5635 13.8241 25.1505 14.3732 25.6279 14.999C26.1181 15.6248 26.5181 16.2824 26.8277 16.972C27.1503 17.6489 27.3825 18.3385 27.5244 19.0409C27.6663 19.7305 27.7373 20.3818 27.7373 20.9947V23.2551Z" fill="white"/>
<path d="M59.7842 20.9947C59.7842 22.1313 59.6422 23.1466 59.3584 24.0405C59.0746 24.9344 58.6875 25.7262 58.1972 26.4158C57.7199 27.0926 57.1651 27.6737 56.5329 28.1589C55.9007 28.6442 55.2363 29.0465 54.5395 29.3657C53.8558 29.6723 53.1591 29.8958 52.4495 30.0362C51.7528 30.1766 51.0948 30.2469 50.4755 30.2469L60.984 39.2309H53.2043L42.715 30.2469H39.0961V25.2665H50.4755C51.1077 25.2154 51.6818 25.0876 52.1979 24.8833C52.7269 24.6662 53.1784 24.3789 53.5526 24.0213C53.9396 23.6637 54.2363 23.2359 54.4428 22.7379C54.6492 22.2271 54.7524 21.646 54.7524 20.9947V17.8532C54.7524 17.5723 54.7137 17.3615 54.6363 17.2211C54.5718 17.0678 54.4815 16.9593 54.3654 16.8954C54.2622 16.8188 54.146 16.7741 54.017 16.7614C53.9009 16.7485 53.7913 16.7422 53.6881 16.7422H37.0835V39.2309H32.0518V14.2711C32.0518 13.9263 32.1162 13.6007 32.2452 13.2941C32.3743 12.9877 32.5484 12.7195 32.7678 12.4896C33 12.2598 33.271 12.081 33.5806 11.9532C33.8903 11.8255 34.2257 11.7617 34.587 11.7617H53.6881C54.8105 11.7617 55.7588 11.966 56.5329 12.3747C57.307 12.7705 57.9328 13.275 58.4101 13.888C58.9004 14.4882 59.2487 15.1395 59.4551 15.8419C59.6745 16.5442 59.7842 17.2019 59.7842 17.8149V20.9947Z" fill="white"/>
<path d="M93.9616 28.1205C93.9616 29.7934 93.6716 31.3322 93.0909 32.737C92.5103 34.1417 91.7037 35.355 90.6712 36.3766C89.6394 37.3982 88.4141 38.1964 86.9945 38.771C85.5881 39.3329 84.053 39.6138 82.3883 39.6138H75.5765C73.9119 39.6138 72.3701 39.3329 70.9512 38.771C69.5323 38.1964 68.3063 37.3982 67.2744 36.3766C66.242 35.355 65.4292 34.1417 64.8357 32.737C64.2552 31.3322 63.9648 29.7934 63.9648 28.1205V22.8719C63.9648 21.2117 64.2552 19.6793 64.8357 18.2745C65.4292 16.8569 66.242 15.6438 67.2744 14.6349C68.3063 13.6133 69.5323 12.8151 70.9512 12.2404C72.3701 11.6658 73.9119 11.3784 75.5765 11.3784H82.3883C84.053 11.3784 85.5881 11.6658 86.9945 12.2404C88.4141 12.8151 89.6394 13.6133 90.6712 14.6349C91.7037 15.6438 92.5103 16.8569 93.0909 18.2745C93.6716 19.6793 93.9616 21.2117 93.9616 22.8719V28.1205ZM88.93 22.8719C88.93 21.8885 88.7688 21.0009 88.4458 20.2092C88.1366 19.4046 87.6914 18.7214 87.1108 18.1595C86.5427 17.5849 85.853 17.1443 85.0399 16.8378C84.2399 16.5186 83.3561 16.3589 82.3883 16.3589H75.5765C74.5962 16.3589 73.6992 16.5186 72.8867 16.8378C72.0867 17.1443 71.3964 17.5849 70.8158 18.1595C70.2351 18.7214 69.7833 19.4046 69.4609 20.2092C69.1511 21.0009 68.9966 21.8885 68.9966 22.8719V28.1205C68.9966 29.1038 69.1511 29.9977 69.4609 30.8023C69.7833 31.594 70.2351 32.2772 70.8158 32.8519C71.3964 33.4138 72.0867 33.8544 72.8867 34.1737C73.6992 34.4802 74.5962 34.6334 75.5765 34.6334H82.35C83.3303 34.6334 84.2208 34.4802 85.0207 34.1737C85.8332 33.8544 86.5301 33.4138 87.1108 32.8519C87.6914 32.2772 88.1366 31.594 88.4458 30.8023C88.7688 29.9977 88.93 29.1038 88.93 28.1205V22.8719Z" fill="white"/>
<path d="M121.887 28.0057L103.966 27.9865V22.9869H121.887V28.0057ZM124.132 16.7422H103.966V39.2309H98.9346V14.2711C98.9346 13.9263 98.9993 13.6007 99.1281 13.2941C99.2576 12.9877 99.4313 12.7195 99.6506 12.4896C99.8832 12.2598 100.154 12.081 100.464 11.9532C100.773 11.8255 101.109 11.7617 101.47 11.7617H124.132V16.7422Z" fill="white"/>
<path d="M133.267 39.2309H128.235V11.7617H133.267V39.2309Z" fill="white"/>
<path d="M142.221 6.53846C142.221 2.92737 145.178 0 148.826 0H217.394C221.042 0 224 2.92737 224 6.53846V44.4615C224 48.0726 221.042 51 217.394 51H148.826C145.178 51 142.221 48.0726 142.221 44.4615V6.53846Z" fill="white"/>
<path d="M180.916 39.2306H155.434V30.0193C155.434 29.5469 155.485 29.049 155.588 28.5255C155.704 27.9893 155.879 27.4595 156.111 26.9361C156.343 26.4126 156.64 25.9147 157.001 25.4423C157.375 24.97 157.82 24.5551 158.336 24.1976C158.865 23.8273 159.471 23.5337 160.155 23.3167C160.838 23.0996 161.612 22.9911 162.477 22.9911H173.815C174.498 22.9911 175.001 22.8251 175.324 22.4932C175.659 22.1485 175.827 21.6506 175.827 20.9995V18.7972C175.827 18.1206 175.659 17.6099 175.324 17.2652C174.989 16.9205 174.498 16.7481 173.854 16.7481H157.697V11.769H173.854C174.704 11.769 175.472 11.8776 176.156 12.0946C176.839 12.3116 177.439 12.6052 177.955 12.9755C178.484 13.333 178.935 13.7479 179.309 14.2203C179.684 14.6927 179.987 15.1906 180.219 15.714C180.464 16.2247 180.638 16.7481 180.741 17.2843C180.858 17.8078 180.916 18.2993 180.916 18.7589V20.9995C180.916 22.289 180.677 23.3805 180.2 24.2742C179.735 25.1551 179.148 25.8764 178.439 26.4381C177.729 26.9872 176.962 27.3893 176.137 27.6446C175.324 27.8872 174.562 28.0085 173.854 28.0085H162.477C162.064 28.0085 161.735 28.066 161.49 28.1808C161.245 28.2958 161.051 28.449 160.909 28.6404C160.78 28.8319 160.683 29.049 160.619 29.2916C160.554 29.5342 160.503 29.7767 160.465 30.0193V34.2515H180.916V39.2306Z" fill="black"/>
<path d="M210.789 39.2306H205.72V28.0085H187.842C187.481 28.0085 187.145 27.9447 186.835 27.817C186.526 27.6765 186.255 27.4978 186.023 27.2808C185.803 27.051 185.63 26.7829 185.5 26.4765C185.371 26.1701 185.307 25.8445 185.307 25.4998V11.769H190.338V22.9911H205.72V11.769H210.789V39.2306Z" fill="black"/>
</g>
<defs>
<clipPath id="clip0_202_105">
<rect width="224" height="51" fill="white"/>
</clipPath>
</defs>
</svg>
