<svg width="203" height="46" viewBox="0 0 203 46" fill="none" xmlns="http://www.w3.org/2000/svg">
<path d="M11.7301 37.371C8.73883 37.371 6.38853 36.948 4.67923 36.1021C2.96992 35.2561 1.75204 33.9871 1.02558 32.2952C0.341861 30.6032 0 28.5094 0 26.0138V11.3572C0 8.90391 0.341861 6.85241 1.02558 5.20276C1.70931 3.5108 2.90582 2.24184 4.61513 1.39586C6.32443 0.507588 8.6961 0.0634512 11.7301 0.0634512H33.2033C36.1946 0.0634512 38.5235 0.613335 40.1901 1.7131C41.8994 2.77058 43.0959 4.25104 43.7796 6.15448C44.5061 8.01563 44.8693 10.1729 44.8693 12.6262V18.4C44.8693 20.8533 44.677 22.9048 44.2924 24.5545C43.9078 26.2041 43.2882 27.6212 42.4335 28.8055C41.6216 29.9476 40.5106 31.0262 39.1004 32.0414C37.6902 33.0143 35.9595 33.9025 33.9084 34.7062C35.0194 34.96 36.1518 35.2138 37.3056 35.4676C38.5021 35.7214 39.7414 35.9963 41.0234 36.2924C44.3992 37.0115 47.0273 37.4768 48.9075 37.6883C50.8305 37.8998 52.2407 38.0055 53.1381 38.0055L51.0869 45.3655C50.7878 45.4501 50.3177 45.577 49.6767 45.7462C49.0357 45.9154 48.0742 46 46.7923 46C45.3394 46 43.8437 45.852 42.3053 45.5559C40.8097 45.3021 39.1004 44.9002 37.1774 44.3503C35.3826 43.8005 33.652 43.1237 31.9854 42.32C30.3188 41.5586 28.5454 40.7972 26.6652 40.0359C24.7849 39.2745 22.6483 38.64 20.2553 38.1324C17.8623 37.6248 15.0205 37.371 11.7301 37.371ZM17.6272 28.7421H20.2553C23.2893 28.7421 25.6823 28.4248 27.4344 27.7903C29.2291 27.1559 30.4898 26.0138 31.2162 24.3641C31.9854 22.6722 32.37 20.3035 32.37 17.2579V13.1338C32.37 11.7802 31.964 10.7016 31.1521 9.89793C30.3829 9.09425 29.1223 8.69242 27.3703 8.69242H17.6272C15.7897 8.69242 14.465 9.0731 13.6531 9.83448C12.8839 10.5536 12.4993 11.6533 12.4993 13.1338V24.2372C12.4993 25.8023 12.8839 26.9444 13.6531 27.6634C14.4223 28.3825 15.747 28.7421 17.6272 28.7421Z" fill="white"/>
<path d="M56.367 37.371V5.13931L55.7261 0H85.4039C88.267 0 90.5532 0.317242 92.2625 0.951727C94.0145 1.54391 95.3179 2.36874 96.1725 3.42621C97.0699 4.44138 97.6468 5.6469 97.9032 7.04276C98.2023 8.39632 98.3519 9.83448 98.3519 11.3572V16.3697C98.3519 18.4 98.01 20.2823 97.3263 22.0166C96.6853 23.7085 95.4674 25.0832 93.6727 26.1407C91.9206 27.1559 89.378 27.6634 86.0449 27.6634H81.622C78.9299 27.6634 76.4087 27.6 74.0584 27.4731C71.7508 27.3462 70.0201 27.2405 68.8664 27.1559V37.371H56.367ZM68.8664 19.0345H82.1348C83.545 19.0345 84.5279 18.7595 85.0834 18.2097C85.6389 17.6598 85.9167 16.7715 85.9167 15.5448V12.309C85.9167 11.0823 85.6603 10.194 85.1475 9.64414C84.6347 9.05196 83.6519 8.75586 82.1989 8.75586H68.8664V19.0345Z" fill="white"/>
<path d="M119.677 37.371C115.147 37.371 111.835 36.377 109.741 34.389C107.69 32.3586 106.665 29.1439 106.665 24.7448V12.6262C106.665 8.31173 107.69 5.13931 109.741 3.10897C111.793 1.07862 115.104 0.0634512 119.677 0.0634512H138.394C142.881 0.0634512 146.15 1.07862 148.201 3.10897C150.295 5.13931 151.342 8.31173 151.342 12.6262V24.7448C151.342 29.1439 150.295 32.3586 148.201 34.389C146.107 36.377 142.838 37.371 138.394 37.371H119.677ZM124.1 28.7421H134.035C137.368 28.7421 139.035 27.2405 139.035 24.2372V13.1338C139.035 10.1729 137.368 8.69242 134.035 8.69242H124.1C122.39 8.69242 121.108 9.03081 120.254 9.70759C119.399 10.3844 118.972 11.5264 118.972 13.1338V24.2372C118.972 25.8023 119.399 26.9444 120.254 27.6634C121.108 28.3825 122.39 28.7421 124.1 28.7421Z" fill="white"/>
<path d="M168.194 37.371C165.288 37.371 163.152 37.2441 161.784 36.9903C160.417 36.7366 159.733 36.4405 159.733 36.1021L163.579 27.9172C164.562 28.0864 166.592 28.2556 169.669 28.4248C172.745 28.5517 176.741 28.6152 181.655 28.6152H186.719C188.214 28.6152 189.219 28.4037 189.732 27.9807C190.244 27.5577 190.501 26.9444 190.501 26.1407V25.5062C190.501 24.491 190.244 23.7931 189.732 23.4124C189.219 23.0317 188.214 22.8414 186.719 22.8414H172.04C167.724 22.8414 164.583 22.0589 162.618 20.4938C160.652 18.8864 159.669 16.2851 159.669 12.6897V10.4055C159.669 8.54437 160.011 6.83127 160.695 5.26621C161.421 3.70115 162.639 2.45333 164.348 1.52276C166.058 0.549888 168.408 0.0634512 171.399 0.0634512H192.68C195.287 0.0634512 197.445 0.211497 199.154 0.507587C200.906 0.80368 201.782 1.12092 201.782 1.45931L199.859 9.3269C198.663 9.2 196.398 9.0731 193.065 8.94621C189.774 8.77701 185.586 8.69242 180.501 8.69242L175.886 8.62897C174.561 8.62897 173.621 8.81931 173.066 9.2C172.51 9.53839 172.211 10.194 172.168 11.1669V11.611C172.168 12.5839 172.468 13.2607 173.066 13.6414C173.664 14.0221 174.626 14.2124 175.95 14.2124H190.052C192.787 14.2124 195.116 14.4874 197.039 15.0372C198.962 15.5871 200.436 16.6023 201.462 18.0828C202.487 19.5209 203 21.657 203 24.491V26.7752C203 29.9476 202.167 32.5067 200.5 34.4524C198.876 36.3982 196.035 37.371 191.975 37.371H168.194Z" fill="white"/>
</svg>
