<svg width="252" height="84" viewBox="0 0 252 84" fill="none" xmlns="http://www.w3.org/2000/svg">
<g clip-path="url(#clip0_235_10)">
<path d="M56.2369 40.0689C55.9038 40.0689 55.6337 40.326 55.6337 40.6438C55.6337 47.1874 55.6337 58.9728 55.6337 65.5161C55.6337 65.8343 55.364 66.0914 55.0312 66.0914H19.1417C18.9655 66.09 18.8698 66.1884 18.8698 66.3557V70.5955C18.8725 70.752 19.0011 70.8023 19.1256 70.8023L60.0897 70.9652V70.9598C60.4224 70.9598 60.6922 70.702 60.6922 70.3845C60.6922 62.3581 60.6922 48.6702 60.6922 40.6438C60.6922 40.326 60.4224 40.0689 60.0897 40.0689C58.9372 40.0689 57.389 40.0689 56.2369 40.0689ZM45.5197 40.6438C45.5197 40.326 45.2496 40.0689 44.9168 40.0689C43.7644 40.0689 42.2165 40.0689 41.0644 40.0689C40.7313 40.0689 40.4616 40.326 40.4616 40.6438C40.4616 43.1856 40.4616 48.8648 40.4616 51.4062C40.4616 51.4776 40.4478 51.5341 40.3913 51.588C40.3359 51.6409 40.2794 51.6539 40.2041 51.655C33.4162 51.655 24.5911 51.655 17.8032 51.655C17.3315 51.655 16.9043 51.7024 16.527 52.062L0.363959 67.4734C0.25596 67.5762 0.25596 67.7117 0.363959 67.8145L3.58277 70.8866C3.69013 70.9898 3.8329 70.9898 3.94054 70.8866C7.38002 67.6038 15.2426 60.1006 18.6823 56.817C18.9966 56.5407 19.3106 56.4828 19.6592 56.4828H45.2651C45.3368 56.4828 45.3958 56.4665 45.4494 56.4155C45.5037 56.3633 45.5197 56.3065 45.5197 56.2381C45.5197 52.2118 45.5197 44.67 45.5197 40.6438ZM224.301 58.5969L225.765 50.8284C230.723 52.9892 234.666 54.07 237.594 54.07C240.561 54.07 242.045 52.8589 242.045 50.437C242.045 49.0956 241.655 48.0986 240.874 47.4466C240.093 46.7946 238.765 46.1335 236.891 45.4627C235.603 45.0157 234.666 44.6802 234.081 44.4568C233.495 44.2335 232.665 43.8881 231.592 43.4226C230.518 42.9575 229.718 42.5471 229.191 42.1932C228.664 41.8393 228.039 41.3547 227.317 40.7401C226.595 40.1249 226.058 39.4913 225.706 38.8397C225.355 38.1877 225.052 37.4048 224.798 36.492C224.545 35.5796 224.418 34.6012 224.418 33.5578C224.418 30.0552 225.804 27.3817 228.576 25.5371C231.348 23.6933 234.842 22.7707 239.058 22.7707C242.572 22.7707 246.32 23.4598 250.302 24.8389L248.603 32.2722C245.285 30.7819 242.123 30.0365 239.117 30.0365C235.993 30.0365 234.432 31.2105 234.432 33.5578C234.432 34.3775 234.793 35.1229 235.515 35.7934C236.237 36.4641 236.97 36.9579 237.711 37.2746C238.453 37.5913 239.644 38.0476 241.284 38.6441C242.572 39.1283 243.587 39.5292 244.329 39.8455C245.071 40.1621 245.998 40.6565 247.11 41.3267C248.223 41.9973 249.082 42.6868 249.687 43.3949C250.292 44.1027 250.829 45.0252 251.298 46.1614C251.766 47.2977 252 48.5556 252 49.9344C252 53.3621 250.712 56.1287 248.135 58.2341C245.559 60.3388 242.26 61.3921 238.238 61.3921C232.499 61.3921 227.854 60.4601 224.301 58.5969ZM191.543 58.5969L193.007 50.8284C197.965 52.9892 201.908 54.07 204.837 54.07C207.803 54.07 209.287 52.8589 209.287 50.437C209.287 49.0956 208.896 48.0986 208.116 47.4466C207.336 46.7946 206.007 46.1335 204.134 45.4627C202.845 45.0157 201.908 44.6802 201.323 44.4568C200.737 44.2335 199.908 43.8881 198.834 43.4226C197.761 42.9571 196.96 42.5467 196.433 42.1932C195.906 41.8389 195.281 41.3547 194.559 40.7401C193.837 40.1253 193.3 39.4913 192.948 38.8397C192.598 38.1877 192.294 37.4048 192.041 36.492C191.788 35.5796 191.66 34.6012 191.66 33.5578C191.66 30.0552 193.046 27.3814 195.818 25.5371C198.589 23.6929 202.084 22.7707 206.301 22.7707C209.814 22.7707 213.562 23.4598 217.544 24.8389L215.846 32.2722C212.528 30.7819 209.365 30.0365 206.359 30.0365C203.236 30.0365 201.674 31.2105 201.674 33.5578C201.674 34.3775 202.036 35.1229 202.758 35.7934C203.479 36.4641 204.212 36.9579 204.953 37.2746C205.695 37.591 206.886 38.0476 208.526 38.6441C209.814 39.1283 210.829 39.5292 211.571 39.8455C212.313 40.1621 213.24 40.6565 214.353 41.3267C215.465 41.9973 216.324 42.6868 216.929 43.3949C217.534 44.1027 218.071 45.0252 218.539 46.1614C219.008 47.2977 219.243 48.5556 219.243 49.9344C219.243 53.3621 217.954 56.1287 215.377 58.2341C212.801 60.3392 209.502 61.3921 205.481 61.3921C199.741 61.3921 195.096 60.4601 191.543 58.5969ZM165.676 52.6728C166.632 53.2311 167.833 53.511 169.277 53.511C170.722 53.511 171.923 53.2314 172.879 52.6728C173.835 52.1137 174.548 51.2755 175.016 50.1575C175.485 49.0401 175.798 47.8658 175.954 46.6366C176.109 45.4068 176.187 43.898 176.187 42.1092C176.187 40.6558 176.148 39.4074 176.071 38.3647C175.993 37.3212 175.807 36.2681 175.514 35.2067C175.221 34.1448 174.831 33.278 174.343 32.6074C173.855 31.9371 173.182 31.3962 172.322 30.9865C171.464 30.5768 170.449 30.3718 169.277 30.3718C167.833 30.3718 166.632 30.6607 165.676 31.2382C164.72 31.8157 164.006 32.6822 163.538 33.8372C163.07 34.992 162.748 36.2036 162.572 37.4701C162.397 38.7368 162.308 40.2833 162.308 42.1092C162.308 43.898 162.397 45.4068 162.572 46.6366C162.748 47.8658 163.07 49.0401 163.538 50.1575C164.007 51.2752 164.72 52.1141 165.676 52.6728ZM162.045 23.8604C164.134 23.134 166.564 22.7707 169.336 22.7707C172.108 22.7707 174.538 23.134 176.627 23.8604C178.715 24.5867 180.375 25.5375 181.604 26.711C182.834 27.8848 183.83 29.3382 184.591 31.0707C185.352 32.803 185.86 34.5362 186.114 36.2685C186.367 38.001 186.494 39.948 186.494 42.1092C186.494 44.2332 186.357 46.1617 186.084 47.8941C185.811 49.6263 185.294 51.3592 184.532 53.092C183.771 54.8242 182.766 56.2782 181.517 57.4514C180.268 58.6255 178.598 59.5756 176.509 60.3019C174.421 61.0286 171.971 61.3921 169.16 61.3921C166.388 61.3921 163.967 61.0286 161.899 60.3019C159.83 59.5756 158.18 58.6255 156.95 57.4514C155.72 56.2779 154.725 54.8245 153.964 53.092C153.203 51.3592 152.694 49.6263 152.441 47.8941C152.188 46.1617 152.06 44.2332 152.06 42.1092C152.06 39.9856 152.197 38.0474 152.47 36.2965C152.743 34.5453 153.271 32.803 154.052 31.0707C154.832 29.3382 155.838 27.8848 157.067 26.711C158.297 25.5375 159.957 24.5867 162.045 23.8604ZM128.38 30.204V41.5503C128.575 41.5503 128.858 41.5689 129.229 41.6062C129.599 41.6434 129.931 41.6718 130.224 41.6901C130.517 41.7087 130.78 41.7181 131.015 41.7181C132.849 41.7181 134.275 41.3172 135.29 40.5164C136.304 39.7156 136.812 38.2152 136.812 36.017C136.812 32.0674 134.899 30.0924 131.073 30.0924C129.824 30.0924 128.926 30.1296 128.38 30.204ZM117.839 60.777V24.2796C122.016 23.4598 126.428 23.0502 131.073 23.0502C132.83 23.0502 134.421 23.1435 135.846 23.3296C137.27 23.5157 138.706 23.8889 140.15 24.4474C141.594 25.006 142.795 25.7425 143.752 26.6553C144.708 27.5684 145.489 28.7979 146.094 30.344C146.699 31.8905 147.002 33.707 147.002 35.7934C147.002 41.5318 144.601 45.3697 139.799 47.3072L149.168 60.777H137.808L130.019 48.313C129.356 48.2386 128.809 48.164 128.38 48.0897V60.777H117.839ZM80.9228 41.9976C81.0401 38.4578 81.6552 35.4019 82.7679 32.8313C83.8802 30.2602 85.3932 28.2664 87.3057 26.8505C89.2189 25.435 91.2787 24.4008 93.4844 23.7488C95.6901 23.0968 98.1011 22.7707 100.717 22.7707C103.996 22.7707 107.588 23.3483 111.492 24.5033L109.969 31.4337C106.377 30.5027 103.547 30.0365 101.478 30.0365C94.958 30.0365 91.6983 33.9675 91.6983 41.8298C91.6983 46.2638 92.4695 49.3754 94.0112 51.1637C95.5533 52.9519 97.7688 53.8466 100.658 53.8466C101.439 53.8466 102.24 53.7905 103.059 53.6782V41.774H112.78V59.3236C108.72 60.6281 104.347 61.2799 99.6627 61.2799C87.2087 61.2799 80.9622 54.8524 80.9228 41.9976ZM5.05803 18.4368C5.05803 28.3323 5.05803 43.2966 5.05803 53.1916C5.05401 53.8857 4.9993 54.1073 4.5142 54.5533C3.39257 55.624 1.87558 57.0719 0.753951 58.1422C0.226498 58.6458 -0.00266319 58.3866 2.33346e-05 57.88V13.6093C2.33346e-05 13.2914 0.269572 13.0342 0.60279 13.0342H60.4749C60.526 13.0342 60.5868 13.0659 60.6219 13.0991C60.6766 13.1516 60.6922 13.2079 60.6922 13.279C60.698 14.0688 60.686 16.1607 60.6922 16.9504C60.6947 17.3033 60.5651 17.618 60.2885 17.8524C55.4248 22.4949 50.3623 27.3455 45.4979 31.9878C45.196 32.2863 44.9425 32.3443 44.5081 32.3443L20.4932 32.3446C20.4166 32.3453 20.3495 32.3646 20.2999 32.4119C20.2537 32.4562 20.2308 32.5062 20.2308 32.5689V43.6862C20.2308 43.7566 20.2141 43.8125 20.16 43.864C20.1053 43.9159 20.0468 43.9309 19.9725 43.9309H15.4283C15.3554 43.9309 15.2963 43.9153 15.2429 43.864C15.1888 43.8125 15.1725 43.7562 15.1725 43.6862V27.767C15.1725 27.6963 15.1851 27.6392 15.2429 27.5841C15.3 27.5296 15.3606 27.5168 15.4344 27.5168C23.1958 27.5168 34.7756 27.5168 42.5369 27.5168C42.9258 27.5168 43.2803 27.4385 43.596 27.1322C46.3361 24.517 49.7034 21.1465 52.4435 18.5311C52.8545 18.1159 52.8324 17.8665 52.1553 17.8616H5.6608C5.32803 17.8616 5.05803 18.1191 5.05803 18.4368Z" fill="white"/>
</g>
<defs>
<clipPath id="clip0_235_10">
<rect width="252" height="84" fill="white"/>
</clipPath>
</defs>
</svg>
