<svg width="254" height="43" viewBox="0 0 254 43" fill="none" xmlns="http://www.w3.org/2000/svg">
<path d="M241.285 13.6993C240.887 13.6993 240.525 13.6993 240.214 13.7378C239.902 13.7765 239.594 13.7836 239.307 13.8081V20.4472H240.862C242.931 20.4472 244.405 20.1908 245.301 19.6674C246.198 19.144 246.635 18.2623 246.635 17.0187C246.635 15.7753 246.187 14.9673 245.28 14.458C244.373 13.9486 243.036 13.6993 241.285 13.6993ZM240.974 8.99911C244.631 8.99911 247.433 9.65248 249.377 10.9592C251.321 12.266 252.299 14.2975 252.307 17.0539C252.307 18.7752 251.901 20.1662 251.124 21.2446C250.247 22.3856 249.071 23.261 247.728 23.7739C248.218 24.3816 248.729 25.0877 249.276 25.8815C249.822 26.6755 250.351 27.4904 250.876 28.3404C251.4 29.1906 251.926 30.0969 252.406 31.0243C252.886 31.9516 253.366 32.8649 253.786 33.7607H247.65C247.2 32.9669 246.743 32.1483 246.288 31.3264C245.834 30.5044 245.351 29.6964 244.888 28.9165C244.426 28.1367 243.925 27.4096 243.463 26.7175C243.002 26.0256 242.515 25.3863 242.042 24.8172H239.325V33.7747H233.814V9.63492C235.042 9.39501 236.285 9.22728 237.535 9.1326C238.799 9.04829 239.955 9.00262 240.974 9.00262V8.99911ZM216.697 34.2701C215.185 34.3058 213.68 34.0604 212.258 33.5465C211.093 33.1157 210.039 32.4292 209.173 31.5372C208.355 30.6541 207.739 29.6011 207.373 28.4529C206.974 27.1791 206.778 25.8502 206.792 24.515V9.28715H212.292V24.0409C212.27 24.896 212.381 25.7495 212.622 26.5701C212.809 27.1908 213.119 27.7678 213.532 28.2666C213.911 28.6948 214.393 29.0178 214.933 29.2046C215.521 29.398 216.135 29.4929 216.754 29.4857C217.351 29.5102 217.949 29.413 218.508 29.2C219.068 28.9868 219.579 28.6622 220.01 28.2457C220.839 27.4237 221.26 26.0256 221.26 24.0303V9.27661H226.75V24.5186C226.768 25.8596 226.567 27.1946 226.155 28.4705C225.779 29.6269 225.153 30.6851 224.32 31.5688C223.433 32.4647 222.357 33.148 221.17 33.5675C219.731 34.0647 218.218 34.3026 216.697 34.2701ZM182.169 21.5116C182.153 22.6129 182.3 23.7105 182.606 24.768C182.871 25.6672 183.3 26.5093 183.871 27.2515C184.413 27.9411 185.111 28.4934 185.906 28.8638C186.771 29.237 187.703 29.4295 188.645 29.4295C189.588 29.4295 190.52 29.237 191.385 28.8638C192.184 28.4964 192.886 27.9438 193.429 27.2515C193.994 26.5067 194.417 25.6652 194.68 24.768C194.997 23.7122 195.15 22.614 195.135 21.5116C195.149 20.4059 194.995 19.3043 194.68 18.2447C194.417 17.3387 193.991 16.4887 193.422 15.7366C192.873 15.0483 192.174 14.4955 191.378 14.1207C190.518 13.7378 189.586 13.5473 188.647 13.5622C187.699 13.5427 186.759 13.741 185.899 14.1418C185.107 14.5258 184.412 15.0828 183.864 15.7718C183.293 16.5171 182.867 17.3629 182.606 18.2658C182.3 19.3198 182.153 20.4139 182.169 21.5116ZM200.808 21.5116C200.841 23.399 200.526 25.2761 199.876 27.0477C199.308 28.5418 198.437 29.9009 197.317 31.0383C196.225 32.1191 194.911 32.9454 193.465 33.4587C191.923 34.0077 190.296 34.2823 188.661 34.2701C187.053 34.28 185.455 34.0054 183.94 33.4587C182.493 32.9355 181.172 32.1108 180.064 31.0383C178.917 29.9104 178.024 28.5498 177.442 27.0477C176.78 25.2792 176.458 23.4005 176.493 21.5116C176.454 19.6212 176.79 17.7418 177.48 15.9825C178.08 14.4763 178.985 13.1114 180.138 11.9744C181.246 10.8916 182.567 10.0539 184.018 9.51549C185.502 8.96816 187.072 8.69214 188.654 8.70052C190.259 8.68937 191.854 8.96534 193.363 9.51549C194.818 10.0405 196.141 10.88 197.236 11.9744C198.383 13.1072 199.276 14.474 199.852 15.9825C200.518 17.7478 200.842 19.6244 200.808 21.5116ZM173.069 9.28715V13.9837H165.716V33.7747H160.225V13.9837H152.872V9.28715H173.069ZM148.421 13.102C147.659 13.8854 146.779 14.8831 145.743 16.1231C144.706 17.3631 143.642 18.712 142.524 20.1697C141.408 21.6276 140.336 23.138 139.254 24.6942C138.173 26.2504 137.213 27.7503 136.373 29.1555H148.81V33.7747H129.608V30.4903C130.263 29.2854 131.064 27.954 132.02 26.4822C132.976 25.0104 133.967 23.5209 134.993 22.028C136.019 20.5351 137.094 19.0809 138.144 17.6828C139.194 16.2847 140.203 15.0165 141.128 13.9135H130.168V9.28715H148.419L148.421 13.102ZM112.969 14.8373C112.835 15.1886 112.66 15.6769 112.415 16.2847C112.17 16.8924 111.922 17.6054 111.613 18.3923C111.305 19.1792 110.994 20.0924 110.612 21.076C110.23 22.0596 109.863 23.0537 109.467 24.1076H116.442C116.067 23.0537 115.707 22.035 115.367 21.0655C115.027 20.096 114.667 19.2108 114.369 18.4099C114.072 17.609 113.767 16.9029 113.536 16.3021C113.305 15.7015 113.116 15.1815 112.969 14.8373ZM119.558 33.7747C119.296 32.9247 118.991 32.0535 118.686 31.1577C118.382 30.2619 118.063 29.3662 117.755 28.4705H108.217C107.909 29.3698 107.604 30.2655 107.296 31.1612C106.988 32.057 106.69 32.9176 106.421 33.7747H100.724C101.636 31.1402 102.505 28.7023 103.329 26.4611C104.162 24.2235 104.96 22.1159 105.755 20.1382C106.55 18.1604 107.324 16.2741 108.08 14.5176C108.837 12.7613 109.639 11.0049 110.465 9.30823H115.682C116.48 11.0014 117.282 12.7402 118.046 14.5176C118.809 16.2952 119.621 18.178 120.409 20.1382C121.197 22.0983 122.002 24.2306 122.836 26.4611C123.669 28.6917 124.531 31.1402 125.451 33.7747H119.558ZM90.8459 33.7747C90.3592 32.9809 89.7709 32.1202 89.0951 31.1893C88.4194 30.2585 87.6945 29.3311 86.9277 28.3791C86.1609 27.4272 85.3485 26.5349 84.4767 25.6672C83.6845 24.849 82.8374 24.0862 81.9415 23.3839V33.7747H76.4512V9.28715H81.9311V18.4906C83.3317 17.0012 84.7743 15.4416 86.2344 13.8152C87.6945 12.1887 89.0356 10.6782 90.2787 9.28715H96.8055C95.1388 11.2684 93.465 13.1758 91.7844 15.0094C90.1246 16.8608 88.3389 18.6838 86.4831 20.5421C88.5515 22.2876 90.4454 24.2311 92.138 26.3453C94.045 28.7031 95.7994 31.1811 97.3903 33.7642L90.8459 33.7747Z" fill="white"/>
<path fill-rule="evenodd" clip-rule="evenodd" d="M42.5605 41.9601L54.1611 40.3056C54.4202 40.267 54.5917 40.2003 54.126 40.1616L42.4484 39.1851C42.2483 39.1643 42.0461 39.1847 41.854 39.2449C41.6619 39.3052 41.4842 39.4041 41.3315 39.5356C41.1788 39.6671 41.0544 39.8284 40.9659 40.0098C40.8774 40.191 40.8266 40.3885 40.8168 40.5902C40.8319 40.7999 40.8906 41.004 40.9889 41.1896C41.0874 41.3751 41.2233 41.538 41.3882 41.6676C41.5531 41.7973 41.7432 41.8909 41.9463 41.9425C42.1494 41.9941 42.3611 42.0026 42.5676 41.9672L42.5605 41.9601ZM24.2827 43H1.99896C0.276217 43 -0.602664 41.5421 0.4653 40.0035L7.55237 29.8164C8.55061 31.6607 9.78809 33.3639 11.2325 34.882C13.9601 37.7449 17.9974 38.3561 21.4044 40.2987C22.8155 41.0996 23.8099 41.9883 24.2756 42.9929L24.2827 43ZM30.8234 43H27.8367C28.2884 40.6674 27.3255 38.8128 25.0844 37.7027L29.3282 34.4534L33.5686 37.7027C31.3312 38.8057 30.3683 40.6605 30.8129 42.9929L30.8234 43ZM51.1078 29.799L58.1948 40.0035C59.2663 41.5421 58.3874 43 56.6647 43H34.3776C34.8431 41.9954 35.8377 41.1101 37.2488 40.3056C40.6592 38.3631 44.6964 37.7518 47.4241 34.8889C48.8687 33.3603 50.1049 31.6464 51.1007 29.7919L51.1078 29.799ZM29.3282 0C29.7608 0.0226614 30.1819 0.147409 30.5573 0.364097C30.9327 0.580786 31.2518 0.883297 31.4887 1.24703L44.861 20.8062L48.163 25.559C46.8183 31.8293 42.69 35.0892 38.4953 35.1242C35.6521 35.1489 29.9761 33.0482 30.8269 25.4291C31.0335 23.5848 32.7143 21.4034 34.8537 21.3085C36.8951 21.2171 38.8735 22.5204 39.122 24.5895C39.4932 27.6877 36.3769 29.2896 34.6681 30.1502C37.0491 31.0355 39.1326 30.7369 40.7013 29.4477C41.4021 28.8428 41.9557 28.0853 42.3199 27.233C42.6839 26.3806 42.849 25.456 42.8021 24.5297C42.7787 23.2436 42.3877 21.9914 41.6758 20.9217C40.9638 19.8519 39.9608 19.0097 38.7859 18.4947C36.9232 17.6658 34.6646 17.5148 32.3887 18.0206C32.3887 15.5898 31.5447 12.9622 29.3282 10.2433C27.1119 12.9622 26.2609 15.5898 26.2609 18.0206C23.9989 17.5148 21.7091 17.6693 19.8777 18.5158C18.704 19.0312 17.7024 19.874 16.9923 20.9438C16.2821 22.0136 15.8932 23.2657 15.872 24.5508C15.8224 25.4754 15.9839 26.399 16.3444 27.2514C16.7048 28.1036 17.2547 28.8621 17.9519 29.4687C19.5241 30.7404 21.6039 31.039 23.9885 30.1713C22.2763 29.3106 19.1633 27.7123 19.5346 24.6105C19.7797 22.5415 21.758 21.2382 23.803 21.3296C25.9423 21.4245 27.6231 23.6059 27.8261 25.4501C28.677 33.0482 23.0011 35.1489 20.1613 35.1279C15.9595 35.0926 11.8347 31.8328 10.4936 25.5625L13.7921 20.8097L27.1679 1.24703C27.4048 0.883297 27.7239 0.580786 28.0993 0.364097C28.4748 0.147409 28.8958 0.0226614 29.3282 0ZM16.1065 41.9601L4.50956 40.3056C4.25043 40.267 4.07537 40.2003 4.54456 40.1616L16.2221 39.1851C16.4223 39.1643 16.6245 39.1847 16.8166 39.2449C17.0087 39.3052 17.1865 39.4041 17.3392 39.5356C17.4919 39.6671 17.6163 39.8284 17.7048 40.0098C17.7932 40.191 17.844 40.3885 17.8539 40.5902C17.8378 40.7989 17.7785 41.0019 17.6799 41.1864C17.5813 41.3708 17.4456 41.5326 17.2812 41.6615C17.1167 41.7904 16.9274 41.8834 16.7252 41.9349C16.523 41.9863 16.3123 41.9949 16.1065 41.9601Z" fill="white"/>
</svg>
