<svg width="254" height="38" viewBox="0 0 254 38" fill="none" xmlns="http://www.w3.org/2000/svg">
<path d="M0 1.79282H3.34139L13.6801 15.5897L24.0973 1.79282H27.3994V29.4646H23.7829V7.95077L13.7194 21.3579L3.65588 7.95077V29.4646H0V1.79282Z" fill="white"/>
<path d="M39.4979 37.6103H35.724L40.0089 28.4513L31.3999 9.97744H35.1344L41.8958 24.7877L48.6179 9.97744H52.3917L39.4979 37.6103Z" fill="white"/>
<path d="M56.2785 29.4646V1.79282H65.4379C67.9538 1.79282 69.9717 2.50735 71.4917 3.93641C73.0117 5.36547 73.7717 7.09333 73.7717 9.12C73.7717 11.6663 72.7758 13.5501 70.7841 14.7713C74.0076 15.9405 75.6193 18.1491 75.6193 21.3969C75.6193 23.7354 74.7545 25.6711 73.0248 27.2041C71.3214 28.7111 69.0676 29.4646 66.2634 29.4646H56.2785ZM59.9344 26.1908H66.4207C68.2551 26.1908 69.6441 25.775 70.5876 24.9436C71.5572 24.0862 72.0421 22.9429 72.0421 21.5138C72.0421 20.1108 71.5572 18.9805 70.5876 18.1231C69.6441 17.2397 68.2682 16.7979 66.46 16.7979H59.9344V26.1908ZM59.9344 13.68H65.4379C66.9055 13.68 68.0586 13.2903 68.8972 12.5108C69.762 11.7053 70.1945 10.666 70.1945 9.39282C70.1945 8.17162 69.762 7.1453 68.8972 6.31385C68.0324 5.48239 66.8793 5.06667 65.4379 5.06667H59.9344V13.68Z" fill="white"/>
<path d="M89.2171 29.8544C86.2557 29.8544 83.7922 28.88 81.8267 26.9313C79.8874 24.9566 78.9177 22.5532 78.9177 19.721C78.9177 16.8889 79.8874 14.4985 81.8267 12.5497C83.7922 10.575 86.2557 9.58769 89.2171 9.58769C92.1522 9.58769 94.5895 10.575 96.5288 12.5497C98.4943 14.4985 99.4771 16.8889 99.4771 19.721C99.4771 22.5532 98.4943 24.9566 96.5288 26.9313C94.5895 28.88 92.1522 29.8544 89.2171 29.8544ZM84.2639 24.7097C85.5481 26.0609 87.1991 26.7364 89.2171 26.7364C91.235 26.7364 92.8729 26.0609 94.1309 24.7097C95.3888 23.3586 96.0178 21.6957 96.0178 19.721C96.0178 17.7463 95.3888 16.0834 94.1309 14.7323C92.8729 13.3812 91.235 12.7056 89.2171 12.7056C87.1991 12.7056 85.5481 13.3812 84.2639 14.7323C83.006 16.0834 82.377 17.7463 82.377 19.721C82.377 21.6957 83.006 23.3586 84.2639 24.7097Z" fill="white"/>
<path d="M113.057 29.8544C110.095 29.8544 107.632 28.88 105.666 26.9313C103.727 24.9566 102.757 22.5532 102.757 19.721C102.757 16.8889 103.727 14.4985 105.666 12.5497C107.632 10.575 110.095 9.58769 113.057 9.58769C115.992 9.58769 118.429 10.575 120.369 12.5497C122.334 14.4985 123.317 16.8889 123.317 19.721C123.317 22.5532 122.334 24.9566 120.369 26.9313C118.429 28.88 115.992 29.8544 113.057 29.8544ZM108.104 24.7097C109.388 26.0609 111.039 26.7364 113.057 26.7364C115.075 26.7364 116.713 26.0609 117.971 24.7097C119.228 23.3586 119.857 21.6957 119.857 19.721C119.857 17.7463 119.228 16.0834 117.971 14.7323C116.713 13.3812 115.075 12.7056 113.057 12.7056C111.039 12.7056 109.388 13.3812 108.104 14.7323C106.846 16.0834 106.217 17.7463 106.217 19.721C106.217 21.6957 106.846 23.3586 108.104 24.7097Z" fill="white"/>
<path d="M142.203 29.4646L131.55 19.721V29.4646H128.169V0.233845H131.55V17.5774L140.12 9.97744H144.601L134.931 18.5908L146.763 29.4646H142.203Z" fill="white"/>
<path d="M152.78 4.09231C152.335 4.53402 151.771 4.75487 151.09 4.75487C150.409 4.75487 149.832 4.53402 149.36 4.09231C148.889 3.62462 148.653 3.05299 148.653 2.37744C148.653 1.72786 148.889 1.16923 149.36 0.701539C149.832 0.233846 150.409 0 151.09 0C151.771 0 152.335 0.233846 152.78 0.701539C153.226 1.16923 153.449 1.72786 153.449 2.37744C153.449 3.05299 153.226 3.62462 152.78 4.09231ZM149.36 29.4646V9.97744H152.741V29.4646H149.36Z" fill="white"/>
<path d="M159.15 29.4646V9.97744H162.53V12.9785C163.867 10.7179 165.95 9.58769 168.781 9.58769C171.008 9.58769 172.803 10.3022 174.166 11.7313C175.529 13.1603 176.21 15.0701 176.21 17.4605V29.4646H172.869V17.9672C172.869 16.3303 172.45 15.0441 171.611 14.1087C170.772 13.1474 169.645 12.6667 168.23 12.6667C166.605 12.6667 165.243 13.3032 164.142 14.5764C163.068 15.8496 162.53 17.5904 162.53 19.799V29.4646H159.15Z" fill="white"/>
<path d="M186.072 24.3979C187.304 25.6711 188.902 26.3077 190.868 26.3077C192.833 26.3077 194.432 25.6711 195.664 24.3979C196.896 23.0988 197.511 21.4619 197.511 19.4872C197.511 17.5125 196.882 15.8885 195.624 14.6154C194.393 13.3162 192.807 12.6667 190.868 12.6667C188.929 12.6667 187.33 13.3162 186.072 14.6154C184.84 15.8885 184.224 17.5125 184.224 19.4872C184.224 21.4619 184.84 23.0988 186.072 24.3979ZM190.671 38C188.653 38 186.832 37.6232 185.207 36.8697C183.582 36.1422 182.324 35.1938 181.433 34.0246L183.792 31.6862C185.522 33.8687 187.815 34.96 190.671 34.96C192.506 34.96 194.052 34.3884 195.31 33.2451C196.594 32.1019 197.236 30.426 197.236 28.2174V25.9959C196.529 27.0352 195.572 27.8667 194.367 28.4903C193.161 29.1138 191.838 29.4256 190.396 29.4256C187.644 29.4256 185.351 28.4773 183.517 26.5805C181.682 24.6578 180.765 22.2933 180.765 19.4872C180.765 16.707 181.682 14.3685 183.517 12.4718C185.378 10.5491 187.671 9.58769 190.396 9.58769C191.838 9.58769 193.161 9.89949 194.367 10.5231C195.572 11.1467 196.529 11.9651 197.236 12.9785V9.97744H200.617V28.3344C200.617 31.4783 199.687 33.8687 197.826 35.5056C195.991 37.1685 193.607 38 190.671 38Z" fill="white"/>
<path d="M210.796 28.919C210.245 29.4906 209.564 29.7764 208.751 29.7764C207.939 29.7764 207.245 29.4906 206.668 28.919C206.118 28.3473 205.842 27.6588 205.842 26.8533C205.842 26.0738 206.131 25.3983 206.707 24.8267C207.284 24.2291 207.965 23.9303 208.751 23.9303C209.538 23.9303 210.219 24.2291 210.796 24.8267C211.372 25.3983 211.66 26.0738 211.66 26.8533C211.66 27.6588 211.372 28.3473 210.796 28.919Z" fill="white"/>
<path d="M223.845 29.8544C221.696 29.8544 219.953 29.1398 218.617 27.7108C217.28 26.2557 216.612 24.333 216.612 21.9426V9.97744H219.992V21.4359C219.992 23.0728 220.386 24.372 221.172 25.3333C221.984 26.2947 223.072 26.7754 224.435 26.7754C226.007 26.7754 227.304 26.1388 228.326 24.8656C229.375 23.5665 229.899 21.8256 229.899 19.6431V9.97744H233.279V29.4646H229.899V26.4636C228.615 28.7241 226.597 29.8544 223.845 29.8544Z" fill="white"/>
<path d="M238.04 29.4646V26.8144L249.283 13.0564H238.197V9.97744H253.646V12.6667L242.403 26.3856H254V29.4646H238.04Z" fill="white"/>
</svg>
