<svg width="223" height="59" viewBox="0 0 223 59" fill="none" xmlns="http://www.w3.org/2000/svg">
<path d="M0.297874 29.5026V6.41763H7.2647V9.88038C7.63381 8.83386 8.32587 7.95663 9.34091 7.24869C10.3559 6.50997 11.494 6.14061 12.7551 6.14061C13.5548 6.14061 14.3084 6.23295 15.0159 6.41763V13.4816C13.9393 13.1123 12.9089 12.9276 11.9246 12.9276C10.4482 12.9276 9.29477 13.4509 8.46429 14.4974C7.66456 15.5131 7.2647 16.8674 7.2647 18.5603V29.5026H0.297874Z" fill="white"/>
<path d="M28.9838 30.0105C25.508 30.0105 22.586 28.9178 20.2176 26.7324C17.8799 24.5163 16.7111 21.5922 16.7111 17.9601C16.7111 14.5128 17.8645 11.6502 20.1714 9.37251C22.4783 7.06401 25.3696 5.90976 28.8454 5.90976C32.075 5.90976 34.7972 6.89472 37.0118 8.86464C39.2264 10.8346 40.3337 13.6048 40.3337 17.1752C40.3337 18.0679 40.2876 18.8835 40.1953 19.6222H23.4472C23.6318 20.9458 24.2623 21.9615 25.3389 22.6695C26.4154 23.3466 27.6612 23.6852 29.076 23.6852C30.3372 23.6852 31.4598 23.439 32.4441 22.9465C33.4284 22.4232 34.1666 21.7922 34.6587 21.0535L39.8262 24.9318C38.7189 26.5016 37.2271 27.7482 35.3508 28.6716C33.4745 29.5642 31.3522 30.0105 28.9838 30.0105ZM23.6318 15.0514H33.413C33.1362 13.9126 32.5518 13.0507 31.6598 12.4659C30.7678 11.8811 29.7681 11.5887 28.6608 11.5887C27.492 11.5887 26.4308 11.8811 25.4773 12.4659C24.5238 13.0199 23.9086 13.8818 23.6318 15.0514Z" fill="white"/>
<path d="M44.7237 29.5026V6.41763H51.6905V8.7723C53.0131 6.86394 55.1508 5.90976 58.1037 5.90976C60.9027 5.90976 63.0866 6.84855 64.6552 8.72613C66.2547 10.6037 67.0544 13.0815 67.0544 16.1595V29.5026H60.0876V17.3599C60.0876 13.9433 58.8419 12.2351 56.3504 12.2351C54.9663 12.2351 53.8436 12.7429 52.9823 13.7587C52.1211 14.7744 51.6905 16.2826 51.6905 18.2833V29.5026H44.7237Z" fill="white"/>
<path d="M83.9733 29.7796C81.2666 29.7796 79.0366 29.0409 77.2833 27.5635C75.5609 26.0553 74.6996 23.8853 74.6996 21.0535V12.4659H70.0858V6.41763H74.6996V0H81.6664V6.41763H88.1257V12.4659H81.6664V19.6222C81.6664 21.0073 81.974 22.0077 82.5892 22.6233C83.2044 23.2389 84.204 23.5467 85.5882 23.5467C86.634 23.5467 87.4798 23.4082 88.1257 23.1312V29.3179C87.1107 29.6257 85.7266 29.7796 83.9733 29.7796Z" fill="white"/>
<path d="M103.102 30.0105C99.6569 30.0105 96.7502 28.8716 94.3818 26.5939C92.0134 24.3162 90.8291 21.4383 90.8291 17.9601C90.8291 14.482 92.0134 11.6041 94.3818 9.32634C96.7502 7.04862 99.6569 5.90976 103.102 5.90976C105.47 5.90976 107.654 6.52536 109.653 7.75656C111.653 8.98776 113.145 10.6191 114.129 12.6506L108.039 15.8825C107.024 13.574 105.378 12.4197 103.102 12.4197C101.625 12.4197 100.38 12.943 99.3647 13.9895C98.3496 15.036 97.8421 16.3596 97.8421 17.9601C97.8421 19.5607 98.3496 20.8842 99.3647 21.9307C100.38 22.9773 101.625 23.5005 103.102 23.5005C105.378 23.5005 107.024 22.3463 108.039 20.0378L114.129 23.2697C113.145 25.3012 111.653 26.9325 109.653 28.1637C107.654 29.3949 105.47 30.0105 103.102 30.0105Z" fill="white"/>
<path d="M127.17 30.0105C124.187 30.0105 121.649 28.8255 119.558 26.4554C117.497 24.0853 116.466 21.2536 116.466 17.9601C116.466 14.6667 117.497 11.8349 119.558 9.46485C121.649 7.09479 124.187 5.90976 127.17 5.90976C129.816 5.90976 131.907 6.84855 133.445 8.72613V6.41763H140.412V29.5026H133.445V27.1941C131.907 29.0717 129.816 30.0105 127.17 30.0105ZM124.91 22.0693C125.894 23.1466 127.17 23.6852 128.739 23.6852C130.308 23.6852 131.569 23.1466 132.522 22.0693C133.507 20.992 133.999 19.6222 133.999 17.9601C133.999 16.298 133.507 14.9283 132.522 13.851C131.569 12.7737 130.308 12.2351 128.739 12.2351C127.17 12.2351 125.894 12.7737 124.91 13.851C123.956 14.9283 123.479 16.298 123.479 17.9601C123.479 19.6222 123.956 20.992 124.91 22.0693Z" fill="white"/>
<path d="M146.146 29.5026V6.41763H153.113V9.88038C153.482 8.83386 154.174 7.95663 155.189 7.24869C156.204 6.50997 157.342 6.14061 158.603 6.14061C159.403 6.14061 160.157 6.23295 160.864 6.41763V13.4816C159.787 13.1123 158.757 12.9276 157.773 12.9276C156.296 12.9276 155.143 13.4509 154.312 14.4974C153.513 15.5131 153.113 16.8674 153.113 18.5603V29.5026H146.146Z" fill="white"/>
<path d="M169.294 28.4407C168.34 29.3949 167.187 29.872 165.833 29.872C164.48 29.872 163.311 29.3949 162.327 28.4407C161.373 27.4558 160.896 26.2861 160.896 24.9318C160.896 23.5775 161.373 22.4232 162.327 21.469C163.311 20.4841 164.48 19.9916 165.833 19.9916C167.187 19.9916 168.34 20.4841 169.294 21.469C170.278 22.4232 170.77 23.5775 170.77 24.9318C170.77 26.2861 170.278 27.4558 169.294 28.4407Z" fill="white"/>
<path d="M183.741 30.0105C180.942 30.0105 178.789 29.0717 177.282 27.1941C175.774 25.3165 175.021 22.7772 175.021 19.5761V6.41763H181.988V18.3757C181.988 21.9154 183.172 23.6852 185.54 23.6852C188.432 23.6852 189.877 21.6691 189.877 17.6369V6.41763H196.844V29.5026H189.877V27.148C188.555 29.0563 186.509 30.0105 183.741 30.0105Z" fill="white"/>
<path d="M201.588 29.5026V24.0546L211.692 12.6967H201.726V6.41763H220.735V11.9119L210.631 23.2235H221.104V29.5026H201.588Z" fill="white"/>
<path d="M0 54.2682V42.9481H10.7031V54.2682H7.33609V45.914H3.36702V54.2682H0Z" fill="white"/>
<path d="M16.8243 59H13.4573V42.9481H16.8243V44.0801C17.0621 43.7179 17.4561 43.4009 18.0061 43.1292C18.5561 42.8425 19.173 42.6991 19.8568 42.6991C21.2988 42.6991 22.5177 43.2802 23.5137 44.4424C24.5246 45.6046 25.03 46.9932 25.03 48.6082C25.03 50.2232 24.5246 51.6118 23.5137 52.7739C22.5177 53.9361 21.2988 54.5172 19.8568 54.5172C19.173 54.5172 18.5561 54.3814 18.0061 54.1097C17.4561 53.8229 17.0621 53.4984 16.8243 53.1362V59ZM17.248 50.6231C17.7236 51.1514 18.3406 51.4155 19.0987 51.4155C19.8568 51.4155 20.4663 51.1514 20.9271 50.6231C21.4028 50.0949 21.6407 49.4232 21.6407 48.6082C21.6407 47.7931 21.4028 47.1215 20.9271 46.5932C20.4663 46.0649 19.8568 45.8008 19.0987 45.8008C18.3406 45.8008 17.7236 46.0649 17.248 46.5932C16.7871 47.1215 16.5567 47.7931 16.5567 48.6082C16.5567 49.4232 16.7871 50.0949 17.248 50.6231Z" fill="white"/>
<path d="M36.4529 52.8192C35.3083 53.9512 33.9258 54.5172 32.3055 54.5172C30.6851 54.5172 29.3027 53.9512 28.158 52.8192C27.0134 51.6721 26.4411 50.2684 26.4411 48.6082C26.4411 46.9479 27.0134 45.5517 28.158 44.4197C29.3027 43.2726 30.6851 42.6991 32.3055 42.6991C33.9258 42.6991 35.3083 43.2726 36.4529 44.4197C37.5976 45.5517 38.1699 46.9479 38.1699 48.6082C38.1699 50.2684 37.5976 51.6721 36.4529 52.8192ZM30.5216 50.5779C30.9973 51.0759 31.5919 51.325 32.3055 51.325C33.019 51.325 33.6062 51.0759 34.067 50.5779C34.5427 50.0798 34.7806 49.4232 34.7806 48.6082C34.7806 47.7931 34.5427 47.1365 34.067 46.6385C33.6062 46.1404 33.019 45.8913 32.3055 45.8913C31.5919 45.8913 30.9973 46.1404 30.5216 46.6385C30.0608 47.1365 29.8304 47.7931 29.8304 48.6082C29.8304 49.4232 30.0608 50.0798 30.5216 50.5779Z" fill="white"/>
<path d="M47.4881 54.2682L43.6082 49.876V54.2682H40.2412V42.9481H43.6082V47.4082L47.0644 42.9481H51.0112L46.5961 48.5402L51.747 54.2682H47.4881Z" fill="white"/>
<path d="M56.5695 54.5172C55.1276 54.5172 53.9012 53.9361 52.8903 52.7739C51.8943 51.6118 51.3963 50.2232 51.3963 48.6082C51.3963 46.9932 51.8943 45.6046 52.8903 44.4424C53.9012 43.2802 55.1276 42.6991 56.5695 42.6991C57.8479 42.6991 58.8588 43.1594 59.602 44.0801V42.9481H62.9691V54.2682H59.602V53.1362C58.8588 54.0569 57.8479 54.5172 56.5695 54.5172ZM55.4769 50.6231C55.9526 51.1514 56.5695 51.4155 57.3276 51.4155C58.0858 51.4155 58.6953 51.1514 59.1561 50.6231C59.6318 50.0949 59.8696 49.4232 59.8696 48.6082C59.8696 47.7931 59.6318 47.1215 59.1561 46.5932C58.6953 46.0649 58.0858 45.8008 57.3276 45.8008C56.5695 45.8008 55.9526 46.0649 55.4769 46.5932C55.0161 47.1215 54.7856 47.7931 54.7856 48.6082C54.7856 49.4232 55.0161 50.0949 55.4769 50.6231Z" fill="white"/>
<path d="M67.7248 54.2682V45.914H64.7592V42.9481H74.2805V45.914H71.0919V54.2682H67.7248Z" fill="white"/>
<path d="M85.0737 54.5172C83.6317 54.5172 82.4053 53.9361 81.3945 52.7739C80.3985 51.6118 79.9005 50.2232 79.9005 48.6082C79.9005 46.9932 80.3985 45.6046 81.3945 44.4424C82.4053 43.2802 83.6317 42.6991 85.0737 42.6991C86.3521 42.6991 87.3629 43.1594 88.1062 44.0801V42.9481H91.4732V54.2682H88.1062V53.1362C87.3629 54.0569 86.3521 54.5172 85.0737 54.5172ZM83.9811 50.6231C84.4567 51.1514 85.0737 51.4155 85.8318 51.4155C86.5899 51.4155 87.1994 51.1514 87.6602 50.6231C88.1359 50.0949 88.3738 49.4232 88.3738 48.6082C88.3738 47.7931 88.1359 47.1215 87.6602 46.5932C87.1994 46.0649 86.5899 45.8008 85.8318 45.8008C85.0737 45.8008 84.4567 46.0649 83.9811 46.5932C83.5202 47.1215 83.2898 47.7931 83.2898 48.6082C83.2898 49.4232 83.5202 50.0949 83.9811 50.6231Z" fill="white"/>
<path d="M94.2445 54.2682V42.9481H99.7075C101.105 42.9481 102.16 43.3028 102.874 44.0122C103.587 44.7065 103.944 45.514 103.944 46.4347C103.944 47.1139 103.736 47.7176 103.32 48.2459C104.212 48.9402 104.658 49.7854 104.658 50.7816C104.658 51.7174 104.316 52.5325 103.632 53.2268C102.963 53.9211 101.937 54.2682 100.555 54.2682H94.2445ZM97.6115 51.5061H100.31C100.592 51.5061 100.83 51.4231 101.023 51.2571C101.216 51.0759 101.313 50.8344 101.313 50.5326C101.313 50.2307 101.216 49.9968 101.023 49.8307C100.83 49.6647 100.592 49.5817 100.31 49.5817H97.6115V51.5061ZM97.6115 47.3403H99.6406C100.28 47.3403 100.599 47.0384 100.599 46.4347C100.599 45.831 100.28 45.5291 99.6406 45.5291H97.6115V47.3403Z" fill="white"/>
<path d="M108.423 54.2682V45.914H105.458V42.9481H114.979V45.914H111.79V54.2682H108.423Z" fill="white"/>
<path d="M125.798 52.8192C124.653 53.9512 123.271 54.5172 121.65 54.5172C120.03 54.5172 118.648 53.9512 117.503 52.8192C116.358 51.6721 115.786 50.2684 115.786 48.6082C115.786 46.9479 116.358 45.5517 117.503 44.4197C118.648 43.2726 120.03 42.6991 121.65 42.6991C123.271 42.6991 124.653 43.2726 125.798 44.4197C126.943 45.5517 127.515 46.9479 127.515 48.6082C127.515 50.2684 126.943 51.6721 125.798 52.8192ZM119.867 50.5779C120.342 51.0759 120.937 51.325 121.65 51.325C122.364 51.325 122.951 51.0759 123.412 50.5779C123.888 50.0798 124.126 49.4232 124.126 48.6082C124.126 47.7931 123.888 47.1365 123.412 46.6385C122.951 46.1404 122.364 45.8913 121.65 45.8913C120.937 45.8913 120.342 46.1404 119.867 46.6385C119.406 47.1365 119.175 47.7931 119.175 48.6082C119.175 49.4232 119.406 50.0798 119.867 50.5779Z" fill="white"/>
<path d="M129.586 42.9481H132.396L135.941 47.4082L139.487 42.9481H142.296V54.2682H138.929V48.178L135.941 51.9136L132.953 48.178V54.2682H129.586V42.9481Z" fill="white"/>
<path d="M154.389 52.8192C153.245 53.9512 151.862 54.5172 150.242 54.5172C148.621 54.5172 147.239 53.9512 146.094 52.8192C144.95 51.6721 144.377 50.2684 144.377 48.6082C144.377 46.9479 144.95 45.5517 146.094 44.4197C147.239 43.2726 148.621 42.6991 150.242 42.6991C151.862 42.6991 153.245 43.2726 154.389 44.4197C155.534 45.5517 156.106 46.9479 156.106 48.6082C156.106 50.2684 155.534 51.6721 154.389 52.8192ZM148.458 50.5779C148.934 51.0759 149.528 51.325 150.242 51.325C150.955 51.325 151.542 51.0759 152.003 50.5779C152.479 50.0798 152.717 49.4232 152.717 48.6082C152.717 47.7931 152.479 47.1365 152.003 46.6385C151.542 46.1404 150.955 45.8913 150.242 45.8913C149.528 45.8913 148.934 46.1404 148.458 46.6385C147.997 47.1365 147.767 47.7931 147.767 48.6082C147.767 49.4232 147.997 50.0798 148.458 50.5779Z" fill="white"/>
<path d="M163.618 54.5172C161.715 54.5172 160.266 53.8984 159.27 52.6607C158.289 51.4231 157.798 49.6798 157.798 47.4309V46.9101C157.798 44.0273 158.371 41.9142 159.515 40.5709C160.66 39.2125 162.369 38.322 164.644 37.8993L168.479 37.1975V40.435L165.38 41.0011C164.161 41.2275 163.209 41.5972 162.526 42.1104C161.842 42.6236 161.433 43.3632 161.299 44.3292C162.102 43.6349 163.09 43.2877 164.265 43.2877C165.87 43.2877 167.134 43.7933 168.055 44.8046C168.992 45.8159 169.46 47.0837 169.46 48.6082C169.46 50.2684 168.895 51.6721 167.766 52.8192C166.636 53.9512 165.253 54.5172 163.618 54.5172ZM161.812 50.6458C162.273 51.0986 162.867 51.325 163.596 51.325C164.324 51.325 164.919 51.0986 165.38 50.6458C165.841 50.193 166.071 49.5439 166.071 48.6987C166.071 48.0346 165.841 47.4611 165.38 46.9781C164.919 46.4951 164.324 46.2536 163.596 46.2536C162.867 46.2536 162.273 46.4951 161.812 46.9781C161.366 47.4611 161.143 48.0346 161.143 48.6987C161.143 49.5439 161.366 50.193 161.812 50.6458Z" fill="white"/>
<path d="M174.58 54.2682H171.569V42.9481H174.936V49.1968L179.574 42.9481H182.585V54.2682H179.24V48.0422L174.58 54.2682Z" fill="white"/>
<path d="M185.955 54.5172C185.271 54.5172 184.751 54.4795 184.394 54.404V51.5061C184.721 51.5363 184.982 51.5514 185.175 51.5514C185.651 51.5514 186 51.4155 186.223 51.1439C186.446 50.8722 186.557 50.3741 186.557 49.6496V42.9481H196.346V54.2682H192.979V45.914H189.924V50.0118C189.924 51.5061 189.538 52.6306 188.765 53.3852C187.992 54.1399 187.055 54.5172 185.955 54.5172Z" fill="white"/>
<path d="M204.378 54.5172C202.698 54.5172 201.286 53.9814 200.141 52.9098C199.011 51.8231 198.446 50.3892 198.446 48.6082C198.446 46.9177 199.004 45.514 200.119 44.3971C201.234 43.2651 202.631 42.6991 204.311 42.6991C205.872 42.6991 207.187 43.1821 208.258 44.148C209.328 45.114 209.863 46.4724 209.863 48.2233C209.863 48.661 209.841 49.061 209.796 49.4232H201.702C201.791 50.0722 202.096 50.5703 202.616 50.9175C203.136 51.2495 203.739 51.4155 204.422 51.4155C205.032 51.4155 205.574 51.2948 206.05 51.0533C206.526 50.7967 206.883 50.4873 207.12 50.1251L209.618 52.0268C209.083 52.7966 208.362 53.4079 207.455 53.8607C206.548 54.2984 205.522 54.5172 204.378 54.5172ZM201.791 47.1818H206.518C206.385 46.6234 206.102 46.2008 205.671 45.914C205.24 45.6272 204.757 45.4838 204.222 45.4838C203.657 45.4838 203.144 45.6272 202.683 45.914C202.222 46.1857 201.925 46.6083 201.791 47.1818Z" fill="white"/>
<path d="M214.995 54.2682H211.985V42.9481H215.352V49.1968L219.99 42.9481H223V54.2682H219.655V48.0422L214.995 54.2682ZM220.525 40.6615C219.767 41.401 218.823 41.7708 217.693 41.7708C216.563 41.7708 215.619 41.401 214.861 40.6615C214.103 39.9068 213.724 38.9333 213.724 37.7409V37.2881H215.865V37.7409C215.865 38.405 216.036 38.9182 216.377 39.2804C216.719 39.6426 217.158 39.8238 217.693 39.8238C218.228 39.8238 218.667 39.6426 219.009 39.2804C219.351 38.9182 219.521 38.405 219.521 37.7409V37.2881H221.662V37.7409C221.662 38.9333 221.283 39.9068 220.525 40.6615Z" fill="white"/>
</svg>
