<svg width="222" height="55" viewBox="0 0 222 55" fill="none" xmlns="http://www.w3.org/2000/svg">
<g clip-path="url(#clip0_206_133)">
<path fill-rule="evenodd" clip-rule="evenodd" d="M30.112 0C35.5469 0 40.2337 3.18835 42.3878 7.78856L60.1581 6.68477C60.7658 6.64701 61.289 7.10792 61.3269 7.71426C61.3283 7.73703 61.329 7.75983 61.329 7.78264V45.8341C61.329 49.0213 60.9965 50.177 60.372 51.3422C59.7475 52.5074 58.8311 53.4219 57.6634 54.045C56.4958 54.6681 55.3376 55 52.1436 55H9.18544C5.99146 55 4.83324 54.6681 3.66557 54.045C2.4979 53.4219 1.58151 52.5074 0.957037 51.3422C0.33256 50.177 0 49.0213 0 45.8341V19.1121C0 16.0377 0.303133 14.921 0.881648 13.7838C1.46016 12.6465 2.31406 11.7398 3.41553 11.0929C4.51701 10.446 5.61506 10.0747 8.69007 9.88359L17.2204 9.35323C18.9697 3.92726 24.0801 0 30.112 0ZM48.7372 25.08C46.8587 25.08 45.3503 25.4155 44.2121 26.0865C43.074 26.7575 42.2176 27.456 41.643 28.182H41.5104V25.41H39.024V48.18H41.5104V38.478H41.643C42.2176 39.204 43.074 39.9025 44.2121 40.5735C45.3503 41.2445 46.8587 41.58 48.7372 41.58C50.3948 41.58 51.8976 41.2225 53.2457 40.5075C54.5939 39.7925 55.6547 38.808 56.4282 37.554C57.2017 36.3 57.5885 34.892 57.5885 33.33C57.5885 31.768 57.2017 30.36 56.4282 29.106C55.6547 27.852 54.5939 26.8675 53.2457 26.1525C51.8976 25.4375 50.3948 25.08 48.7372 25.08ZM10.2491 20.13H7.89542V23.628C7.89542 24.2 7.75178 24.64 7.46447 24.948C7.17716 25.256 6.7683 25.41 6.23789 25.41H4.14937V27.72H7.76282V36.3C7.76282 37.928 8.19379 39.1875 9.05571 40.0785C9.91763 40.9695 11.1442 41.415 12.7354 41.415C13.3543 41.415 13.9344 41.36 14.4759 41.25C15.0173 41.14 15.4207 41.03 15.6859 40.92V38.61C15.487 38.72 15.161 38.83 14.7079 38.94C14.2549 39.05 13.7742 39.105 13.2658 39.105C12.2934 39.105 11.5475 38.852 11.0282 38.346C10.5088 37.84 10.2491 37.092 10.2491 36.102V27.72H14.9897V25.41H10.2491V20.13ZM28.5373 25.08H27.6423C25.9184 25.08 24.5482 25.388 23.5315 26.004C22.5149 26.62 21.7746 27.302 21.3105 28.05H21.1779V25.41H18.6915V41.25H21.1779V33.462C21.1779 31.636 21.7138 30.2005 22.7857 29.1555C23.8575 28.1105 25.3328 27.588 27.2113 27.588C27.7417 27.588 28.1837 27.621 28.5373 27.687V25.08ZM33.8636 25.41H31.3773V41.25H33.8636V25.41ZM48.4057 27.39C49.6434 27.39 50.7705 27.6485 51.7871 28.1655C52.8037 28.6825 53.6104 29.392 54.2071 30.294C54.8038 31.196 55.1022 32.208 55.1022 33.33C55.1022 34.452 54.8038 35.464 54.2071 36.366C53.6104 37.268 52.8037 37.9775 51.7871 38.4945C50.7705 39.0115 49.6434 39.27 48.4057 39.27C47.1018 39.27 45.9249 39.0115 44.8752 38.4945C43.8254 37.9775 43.0021 37.268 42.4054 36.366C41.8087 35.464 41.5104 34.452 41.5104 33.33C41.5104 32.208 41.8087 31.196 42.4054 30.294C43.0021 29.392 43.8254 28.6825 44.8752 28.1655C45.9249 27.6485 47.1018 27.39 48.4057 27.39ZM32.6038 18.942C32.1618 18.942 31.7916 19.0905 31.4933 19.3875C31.1949 19.6845 31.0457 20.042 31.0457 20.46C31.0457 20.878 31.1949 21.241 31.4933 21.549C31.7916 21.857 32.1618 22.011 32.6038 22.011C33.0459 22.011 33.4271 21.857 33.7475 21.549C34.068 21.241 34.2282 20.878 34.2282 20.46C34.2282 20.042 34.068 19.6845 33.7475 19.3875C33.4271 19.0905 33.0459 18.942 32.6038 18.942ZM30.112 2.75C25.7018 2.75 21.9105 5.38772 20.2434 9.16478L39.3643 7.97664C37.4828 4.846 34.0433 2.75 30.112 2.75ZM69.7935 41.25H67.3072V25.41H69.7935V41.25ZM68.5338 22.011C68.0918 22.011 67.7216 21.857 67.4232 21.549C67.1249 21.241 66.9757 20.878 66.9757 20.46C66.9757 20.042 67.1249 19.6845 67.4232 19.3875C67.7216 19.0905 68.0918 18.942 68.5338 18.942C68.9758 18.942 69.3571 19.0905 69.6775 19.3875C69.998 19.6845 70.1582 20.042 70.1582 20.46C70.1582 20.878 69.998 21.241 69.6775 21.549C69.3571 21.857 68.9758 22.011 68.5338 22.011ZM74.954 41.25V25.41H77.4403V28.017H77.5729C78.9652 26.059 81.0759 25.08 83.9047 25.08C85.4297 25.08 86.7557 25.3935 87.8828 26.0205C89.0099 26.6475 89.8774 27.5165 90.4852 28.6275C91.0929 29.7385 91.3968 31.009 91.3968 32.439V41.25H88.9105V32.67C88.9105 31.086 88.4298 29.81 87.4685 28.842C86.5071 27.874 85.1755 27.39 83.4738 27.39C82.2361 27.39 81.1643 27.6375 80.2581 28.1325C79.352 28.6275 78.6559 29.304 78.1696 30.162C77.6834 31.02 77.4403 31.988 77.4403 33.066V41.25H74.954ZM101.961 41.58C100.37 41.58 98.9165 41.272 97.6015 40.656C96.2865 40.04 95.3197 39.391 94.7008 38.709L96.2589 36.96C96.8556 37.576 97.6789 38.126 98.7287 38.61C99.7784 39.094 100.922 39.336 102.16 39.336C103.508 39.336 104.547 39.0995 105.276 38.6265C106.005 38.1535 106.37 37.521 106.37 36.729C106.37 36.047 106.005 35.541 105.276 35.211C104.547 34.881 103.408 34.54 101.861 34.188C100.491 33.88 99.3696 33.5775 98.4966 33.2805C97.6236 32.9835 96.8833 32.5325 96.2755 31.9275C95.6678 31.3225 95.3639 30.514 95.3639 29.502C95.3639 28.226 95.9329 27.17 97.0711 26.334C98.2093 25.498 99.8061 25.08 101.861 25.08C103.298 25.08 104.63 25.311 105.856 25.773C107.083 26.235 107.994 26.741 108.591 27.291L107 29.04C106.447 28.578 105.707 28.1765 104.779 27.8355C103.85 27.4945 102.845 27.324 101.762 27.324C100.524 27.324 99.5685 27.533 98.8944 27.951C98.2203 28.369 97.8833 28.886 97.8833 29.502C97.8833 29.986 98.0767 30.3765 98.4635 30.6735C98.8502 30.9705 99.3254 31.2015 99.8889 31.3665C100.453 31.5315 101.265 31.735 102.326 31.977C103.696 32.263 104.823 32.5545 105.707 32.8515C106.591 33.1485 107.348 33.6105 107.978 34.2375C108.608 34.8645 108.923 35.695 108.923 36.729C108.923 38.137 108.315 39.2975 107.099 40.2105C105.884 41.1235 104.171 41.58 101.961 41.58ZM120.017 41.58C118.492 41.58 117.166 41.2665 116.039 40.6395C114.912 40.0125 114.044 39.138 113.437 38.016C112.829 36.894 112.525 35.618 112.525 34.188V25.41H115.011V33.99C115.011 35.574 115.492 36.85 116.453 37.818C117.415 38.786 118.746 39.27 120.448 39.27C121.686 39.27 122.758 39.0225 123.664 38.5275C124.57 38.0325 125.266 37.356 125.752 36.498C126.238 35.64 126.481 34.672 126.481 33.594V25.41H128.968V41.25H126.481V38.643H126.349C124.956 40.601 122.846 41.58 120.017 41.58ZM133.962 41.25V25.41H136.449V28.05H136.581C137.045 27.302 137.786 26.62 138.802 26.004C139.819 25.388 141.189 25.08 142.913 25.08H143.808V27.687C143.455 27.621 143.013 27.588 142.482 27.588C140.604 27.588 139.128 28.1105 138.057 29.1555C136.985 30.2005 136.449 31.636 136.449 33.462V41.25H133.962ZM152.947 25.08C154.361 25.08 155.604 25.3495 156.676 25.8885C157.748 26.4275 158.571 27.159 159.146 28.083C159.721 29.007 160.008 30.052 160.008 31.218V41.25H157.555V38.643H157.488C157.046 39.369 156.295 40.04 155.234 40.656C154.173 41.272 152.814 41.58 151.157 41.58C149.212 41.58 147.692 41.151 146.598 40.293C145.504 39.435 144.957 38.324 144.957 36.96C144.957 35.706 145.438 34.6555 146.4 33.8085C147.361 32.9615 148.77 32.406 150.626 32.142L157.488 31.152V31.02C157.488 29.898 157.063 29.0015 156.212 28.3305C155.361 27.6595 154.207 27.324 152.748 27.324C151.731 27.324 150.77 27.522 149.864 27.918C148.958 28.314 148.151 28.853 147.444 29.535L145.919 27.951C146.759 27.071 147.786 26.3725 149.002 25.8555C150.217 25.3385 151.532 25.08 152.947 25.08ZM151.422 39.402C152.66 39.402 153.737 39.16 154.654 38.676C155.571 38.192 156.273 37.554 156.759 36.762C157.245 35.97 157.488 35.145 157.488 34.287V33.165L151.09 34.089C149.831 34.265 148.908 34.5785 148.322 35.0295C147.737 35.4805 147.444 36.08 147.444 36.828C147.444 37.642 147.792 38.2745 148.488 38.7255C149.184 39.1765 150.162 39.402 151.422 39.402ZM164.837 41.25V25.41H167.323V28.017H167.456C168.848 26.059 170.959 25.08 173.788 25.08C175.313 25.08 176.639 25.3935 177.766 26.0205C178.893 26.6475 179.76 27.5165 180.368 28.6275C180.976 29.7385 181.28 31.009 181.28 32.439V41.25H178.793V32.67C178.793 31.086 178.313 29.81 177.351 28.842C176.39 27.874 175.058 27.39 173.357 27.39C172.119 27.39 171.047 27.6375 170.141 28.1325C169.235 28.6275 168.539 29.304 168.053 30.162C167.566 31.02 167.323 31.988 167.323 33.066V41.25H164.837ZM194.363 41.58C192.573 41.58 190.954 41.217 189.507 40.491C188.059 39.765 186.921 38.775 186.092 37.521C185.263 36.267 184.849 34.87 184.849 33.33C184.849 31.79 185.263 30.393 186.092 29.139C186.921 27.885 188.059 26.895 189.507 26.169C190.954 25.443 192.573 25.08 194.363 25.08C196.043 25.08 197.546 25.3935 198.872 26.0205C200.198 26.6475 201.225 27.379 201.955 28.215L200.33 29.766C199.689 29.084 198.866 28.5175 197.861 28.0665C196.855 27.6155 195.689 27.39 194.363 27.39C193.037 27.39 191.838 27.6375 190.766 28.1325C189.695 28.6275 188.855 29.326 188.247 30.228C187.639 31.13 187.335 32.164 187.335 33.33C187.335 34.496 187.639 35.53 188.247 36.432C188.855 37.334 189.695 38.0325 190.766 38.5275C191.838 39.0225 193.037 39.27 194.363 39.27C195.756 39.27 196.955 39.017 197.96 38.511C198.966 38.005 199.778 37.422 200.397 36.762L202.054 38.346C201.281 39.248 200.236 40.0125 198.922 40.6395C197.607 41.2665 196.087 41.58 194.363 41.58ZM213.049 41.58C211.215 41.58 209.579 41.2225 208.143 40.5075C206.706 39.7925 205.596 38.808 204.811 37.554C204.027 36.3 203.634 34.892 203.634 33.33C203.634 31.768 204.032 30.36 204.828 29.106C205.623 27.852 206.723 26.8675 208.126 26.1525C209.53 25.4375 211.115 25.08 212.884 25.08C214.629 25.08 216.199 25.4265 217.591 26.1195C218.983 26.8125 220.066 27.7695 220.84 28.9905C221.613 30.2115 222 31.581 222 33.099C222 33.649 221.967 34.045 221.901 34.287H206.253C206.408 35.783 207.099 36.9875 208.325 37.9005C209.552 38.8135 211.127 39.27 213.049 39.27C214.375 39.27 215.596 39.05 216.712 38.61C217.829 38.17 218.773 37.576 219.547 36.828L221.005 38.478C220.077 39.424 218.928 40.1775 217.558 40.7385C216.188 41.2995 214.685 41.58 213.049 41.58ZM219.381 32.241C219.248 30.811 218.58 29.634 217.375 28.71C216.171 27.786 214.674 27.324 212.884 27.324C211.027 27.324 209.491 27.7805 208.276 28.6935C207.06 29.6065 206.386 30.789 206.253 32.241H219.381Z" fill="white"/>
</g>
<defs>
<clipPath id="clip0_206_133">
<rect width="222" height="55" fill="white"/>
</clipPath>
</defs>
</svg>
