<svg width="335" height="28" viewBox="0 0 335 28" fill="none" xmlns="http://www.w3.org/2000/svg">
<path d="M15.9076 28L0 0.0388345H5.87475L18.1583 21.7864L30.48 0.0388345H36.3166L20.409 28H15.9076Z" fill="white"/>
<path d="M38.5265 28V0.0388345H43.5239V28H38.5265Z" fill="white"/>
<path d="M52.4072 28C51.4408 28 50.5507 27.754 49.7369 27.2621C48.9485 26.7702 48.3127 26.123 47.8295 25.3204C47.3463 24.4919 47.1047 23.5858 47.1047 22.6019V20.466H52.1402V22.3689C52.1402 22.4984 52.1784 22.6149 52.2547 22.7184C52.3564 22.7961 52.4708 22.835 52.598 22.835H69.0397C69.1668 22.835 69.2685 22.7961 69.3448 22.7184C69.4466 22.6149 69.4974 22.4984 69.4974 22.3689V17.0485C69.4974 16.9191 69.4466 16.8155 69.3448 16.7379C69.2685 16.6602 69.1668 16.6214 69.0397 16.6214H52.4072C51.4408 16.6214 50.5507 16.3754 49.7369 15.8835C48.9485 15.3916 48.3127 14.7443 47.8295 13.9417C47.3463 13.1133 47.1047 12.1942 47.1047 11.1845V5.43689C47.1047 4.45307 47.3463 3.55987 47.8295 2.75728C48.3127 1.9288 48.9485 1.26861 49.7369 0.776698C50.5507 0.284789 51.4408 0.0388345 52.4072 0.0388345H69.2685C70.2349 0.0388345 71.1123 0.284789 71.9007 0.776698C72.7146 1.26861 73.3631 1.9288 73.8463 2.75728C74.3295 3.55987 74.5711 4.45307 74.5711 5.43689V7.57282H69.4974V5.6699C69.4974 5.54045 69.4466 5.43689 69.3448 5.35922C69.2685 5.25566 69.1668 5.20388 69.0397 5.20388H52.598C52.4708 5.20388 52.3564 5.25566 52.2547 5.35922C52.1784 5.43689 52.1402 5.54045 52.1402 5.6699V10.9903C52.1402 11.1197 52.1784 11.2233 52.2547 11.301C52.3564 11.3786 52.4708 11.4175 52.598 11.4175H69.2685C70.2349 11.4175 71.1123 11.6634 71.9007 12.1553C72.7146 12.6472 73.3631 13.3074 73.8463 14.1359C74.3295 14.9385 74.5711 15.8447 74.5711 16.8544V22.6019C74.5711 23.5858 74.3295 24.4919 73.8463 25.3204C73.3631 26.123 72.7146 26.7702 71.9007 27.2621C71.1123 27.754 70.2349 28 69.2685 28H52.4072Z" fill="white"/>
<path d="M83.962 28C82.9956 28 82.1054 27.754 81.2916 27.2621C80.5032 26.7702 79.8674 26.123 79.3842 25.3204C78.901 24.4919 78.6594 23.5858 78.6594 22.6019V0.0388345H83.6949V22.3689C83.6949 22.4984 83.7331 22.6149 83.8094 22.7184C83.9111 22.7961 84.0256 22.835 84.1527 22.835H100.556C100.683 22.835 100.798 22.7961 100.9 22.7184C101.001 22.6149 101.052 22.4984 101.052 22.3689V0.0388345H106.126V22.6019C106.126 23.5858 105.884 24.4919 105.401 25.3204C104.918 26.123 104.269 26.7702 103.455 27.2621C102.667 27.754 101.79 28 100.823 28H83.962Z" fill="white"/>
<path d="M110.403 28V5.43689C110.403 4.45307 110.645 3.55987 111.128 2.75728C111.611 1.9288 112.247 1.26861 113.035 0.776698C113.849 0.284789 114.739 0.0388345 115.706 0.0388345H132.529C133.495 0.0388345 134.385 0.284789 135.199 0.776698C136.013 1.26861 136.661 1.9288 137.145 2.75728C137.628 3.55987 137.869 4.45307 137.869 5.43689V28H132.796V18.6019H115.439V28H110.403ZM115.439 13.4757H132.796V5.6699C132.796 5.54045 132.745 5.43689 132.643 5.35922C132.542 5.25566 132.427 5.20388 132.3 5.20388H115.896C115.769 5.20388 115.655 5.25566 115.553 5.35922C115.477 5.43689 115.439 5.54045 115.439 5.6699V13.4757Z" fill="white"/>
<path d="M142.254 28V0H147.29V22.835H169.72V28H142.254Z" fill="white"/>
<path d="M183.681 28V5.43689C183.681 4.45307 183.923 3.55987 184.406 2.75728C184.889 1.9288 185.525 1.26861 186.313 0.776698C187.127 0.284789 188.017 0.0388345 188.984 0.0388345H205.807C206.773 0.0388345 207.663 0.284789 208.477 0.776698C209.291 1.26861 209.939 1.9288 210.423 2.75728C210.906 3.55987 211.147 4.45307 211.147 5.43689V28H206.074V18.6019H188.717V28H183.681ZM188.717 13.4757H206.074V5.6699C206.074 5.54045 206.023 5.43689 205.921 5.35922C205.819 5.25566 205.705 5.20388 205.578 5.20388H189.174C189.047 5.20388 188.933 5.25566 188.831 5.35922C188.755 5.43689 188.717 5.54045 188.717 5.6699V13.4757Z" fill="white"/>
<path d="M215.532 28V0H220.568V22.835H242.998V28H215.532Z" fill="white"/>
<path d="M245.26 28V0H250.296V22.835H272.727V28H245.26Z" fill="white"/>
<path d="M280.177 28C279.211 28 278.32 27.754 277.507 27.2621C276.718 26.7702 276.082 26.123 275.599 25.3204C275.116 24.4919 274.874 23.5858 274.874 22.6019V5.43689C274.874 4.45307 275.116 3.55987 275.599 2.75728C276.082 1.9288 276.718 1.26861 277.507 0.776698C278.32 0.284789 279.211 0.0388345 280.177 0.0388345H297.038C298.005 0.0388345 298.882 0.284789 299.67 0.776698C300.484 1.26861 301.133 1.9288 301.616 2.75728C302.099 3.55987 302.341 4.45307 302.341 5.43689V22.6019C302.341 23.5858 302.099 24.4919 301.616 25.3204C301.133 26.123 300.484 26.7702 299.67 27.2621C298.882 27.754 298.005 28 297.038 28H280.177ZM280.368 22.835H296.771C296.898 22.835 297.013 22.7961 297.115 22.7184C297.216 22.6149 297.267 22.4984 297.267 22.3689V5.6699C297.267 5.54045 297.216 5.43689 297.115 5.35922C297.013 5.25566 296.898 5.20388 296.771 5.20388H280.368C280.241 5.20388 280.126 5.25566 280.024 5.35922C279.948 5.43689 279.91 5.54045 279.91 5.6699V22.3689C279.91 22.4984 279.948 22.6149 280.024 22.7184C280.126 22.7961 280.241 22.835 280.368 22.835Z" fill="white"/>
<path d="M317.223 28V17.5146L304.558 0.0388345H310.509L319.779 11.8835L328.935 0.0388345H335L322.297 17.5534V28H317.223Z" fill="white"/>
</svg>
