<svg width="480" height="480" viewBox="0 0 480 480" fill="none" xmlns="http://www.w3.org/2000/svg">
<rect width="480" height="480" rx="240" fill="#DFDFDF"/>
<path d="M103 249.498V134.137C103 130.543 104.928 127.226 108.051 125.447L143.051 105.514C149.718 101.717 158 106.531 158 114.203V249.498C158 253.036 159.87 256.312 162.918 258.11L208.083 284.765C211.13 286.563 213 289.838 213 293.377V365.673C213 373.372 204.664 378.184 197.997 374.332L162.997 354.109C159.905 352.323 158 349.022 158 345.451V293.377C158 289.838 156.13 286.563 153.083 284.765L107.917 258.11C104.87 256.312 103 253.036 103 249.498Z" fill="black"/>
<path d="M216 247.974V164.408C216 160.819 217.923 157.506 221.038 155.726L253.119 137.392C259.723 133.618 267.955 138.306 268.079 145.911L269.753 248.419C269.807 251.743 271.509 254.823 274.295 256.636L318.456 285.388C321.29 287.234 323 290.387 323 293.769V332.449C323 340.198 314.568 345.002 307.902 341.052L274.741 321.398C271.702 319.598 269.839 316.328 269.839 312.796V290.708C269.839 287.142 267.94 283.846 264.855 282.057L220.985 256.625C217.899 254.836 216 251.54 216 247.974Z" fill="black"/>
<path d="M325 249.218V196.901C325 193.517 326.711 190.363 329.547 188.518L362.547 167.052C369.2 162.725 378 167.499 378 175.434V268.551C378 276.278 369.611 281.085 362.945 277.18L329.945 257.846C326.882 256.051 325 252.767 325 249.218Z" fill="black"/>
</svg>
